<svg xmlns="http://www.w3.org/2000/svg"  viewBox="0 0 64 64" width="512px" height="512px"><radialGradient id="0j~9fDC_wDQ5lxgOWc8tZa" cx="32" cy="31.5" r="30.775" gradientUnits="userSpaceOnUse" spreadMethod="reflect"><stop offset="0" stop-color="#efdcb1"/><stop offset="0" stop-color="#f2e0bb"/><stop offset=".011" stop-color="#f2e0bc"/><stop offset=".362" stop-color="#f9edd2"/><stop offset=".699" stop-color="#fef4df"/><stop offset="1" stop-color="#fff7e4"/></radialGradient><path fill="url(#0j~9fDC_wDQ5lxgOWc8tZa)" d="M5.5,61L5.5,61C3.015,61,1,58.985,1,56.5v0C1,54.015,3.015,52,5.5,52h0 c2.485,0,4.5,2.015,4.5,4.5v0C10,58.985,7.985,61,5.5,61z M64,24L64,24c0-2.761-2.239-5-5-5h-5c-2.761,0-5-2.238-5-5v0 c0-2.762,2.238-5,5-5h0.565C56.48,9,58,7.48,58,5.605L58,5.5C58,3.567,56.433,2,54.5,2l-38,0c-1.926,0-3.49,1.556-3.5,3.483L13,5.5 C12.99,7.43,14.552,9,16.483,9H17c2.209,0,4,1.791,4,4v0c0,2.209-1.791,4-4,4H5c-2.761,0-5,2.239-5,5v0c0,2.761,2.239,5,5,5h1 c2.209,0,4,1.791,4,4v0c0,2.209-1.791,4-4,4H5.5C2.462,35,0,37.462,0,40.5v0C0,43.538,2.462,46,5.5,46H19c1.657,0,3,1.343,3,3v0 c0,1.657-1.343,3-3,3h-1.5c-2.485,0-4.5,2.015-4.5,4.5v0c0,2.485,2.015,4.5,4.5,4.5H33h22c2.209,0,4-1.791,4-4v0 c0-2.209-1.791-4-4-4h-6.5c-1.933,0-3.5-1.567-3.5-3.5v0c0-1.933,1.567-3.5,3.5-3.5H60c2.209,0,4-1.791,4-4v0c0-2.209-1.791-4-4-4 h-1.5c-2.485,0-4.5-2.015-4.5-4.5v0c0-2.485,2.015-4.5,4.5-4.5H59C61.761,29,64,26.761,64,24z"/><linearGradient id="0j~9fDC_wDQ5lxgOWc8tZb" x1="33" x2="33" y1="61" y2="44" gradientUnits="userSpaceOnUse" spreadMethod="reflect"><stop offset="0" stop-color="#a4a4a4"/><stop offset=".63" stop-color="#7f7f7f"/><stop offset="1" stop-color="#6f6f6f"/><stop offset="1" stop-color="#6f6f6f"/></linearGradient><path fill="url(#0j~9fDC_wDQ5lxgOWc8tZb)" d="M30 44H36V61H30z"/><linearGradient id="0j~9fDC_wDQ5lxgOWc8tZc" x1="32" x2="32" y1="5.743" y2="36.743" gradientUnits="userSpaceOnUse" spreadMethod="reflect"><stop offset="0" stop-color="#40daf2"/><stop offset=".259" stop-color="#3bd3ef"/><stop offset=".624" stop-color="#2ec1e8"/><stop offset="1" stop-color="#1ba7dd"/></linearGradient><path fill="url(#0j~9fDC_wDQ5lxgOWc8tZc)" d="M56,46H8c-1.105,0-2-0.895-2-2V25c0-5.523,4.477-10,10-10h32c5.523,0,10,4.477,10,10v19 C58,45.105,57.105,46,56,46z"/><linearGradient id="0j~9fDC_wDQ5lxgOWc8tZd" x1="32.5" x2="32.5" y1="15" y2="46" gradientUnits="userSpaceOnUse" spreadMethod="reflect"><stop offset="0" stop-color="#49dff4"/><stop offset=".244" stop-color="#44d8f1"/><stop offset=".587" stop-color="#34c6ea"/><stop offset=".988" stop-color="#1ca8dd"/><stop offset="1" stop-color="#1ba7dd"/></linearGradient><path fill="url(#0j~9fDC_wDQ5lxgOWc8tZd)" d="M40.999,21.003H43c1.657,0,3-1.343,3-3v0c0-1.657-1.343-3-3-3L16,15v14h7v10.003h-6V46h18h8.5 l2.33,0c1.624,0,3.081-1.214,3.165-2.836c0.091-1.73-1.285-3.161-2.996-3.161l-2.357,0c-1.308,0-2.499-0.941-2.63-2.242 c-0.15-1.496,1.021-2.758,2.487-2.758H46V35c1.71,0,3.086-1.431,2.996-3.162C48.911,30.216,47.454,29,45.829,29l-4.829,0.001 C38.791,29.002,37,27.211,37,25.002v0C37,22.793,38.791,21.003,40.999,21.003z"/><linearGradient id="0j~9fDC_wDQ5lxgOWc8tZe" x1="16" x2="16" y1="46" y2="15" gradientUnits="userSpaceOnUse" spreadMethod="reflect"><stop offset="0" stop-color="#53d1f0"/><stop offset=".323" stop-color="#5ed5f2"/><stop offset=".896" stop-color="#7de0f9"/><stop offset="1" stop-color="#83e2fa"/></linearGradient><path fill="url(#0j~9fDC_wDQ5lxgOWc8tZe)" d="M24,46H8c-1.105,0-2-0.895-2-2V25c0-5.523,4.477-10,10-10h0c5.523,0,10,4.477,10,10v19 C26,45.105,25.105,46,24,46z"/><linearGradient id="0j~9fDC_wDQ5lxgOWc8tZf" x1="16" x2="16" y1="25" y2="29" gradientUnits="userSpaceOnUse" spreadMethod="reflect"><stop offset="0" stop-color="#a4a4a4"/><stop offset=".63" stop-color="#7f7f7f"/><stop offset="1" stop-color="#6f6f6f"/><stop offset="1" stop-color="#6f6f6f"/></linearGradient><path fill="url(#0j~9fDC_wDQ5lxgOWc8tZf)" d="M12,25h8c1.105,0,2,0.895,2,2v0c0,1.105-0.895,2-2,2h-8c-1.105,0-2-0.895-2-2v0 C10,25.895,10.895,25,12,25z"/><linearGradient id="0j~9fDC_wDQ5lxgOWc8tZg" x1="59.002" x2="59.002" y1="23.997" y2="1.998" gradientTransform="rotate(90 46 16.998)" gradientUnits="userSpaceOnUse" spreadMethod="reflect"><stop offset="0" stop-color="#ff5840"/><stop offset=".007" stop-color="#ff5840"/><stop offset=".989" stop-color="#fa528c"/><stop offset="1" stop-color="#fa528c"/></linearGradient><path fill="url(#0j~9fDC_wDQ5lxgOWc8tZg)" d="M61,35V25c0-1.105-0.895-2-2-2H41c-1.105,0-2,0.895-2,2v0c0,1.105,0.895,2,2,2h9 c1.105,0,2,0.895,2,2v1c0,3.866,3.134,7,7,7h0C60.105,37,61,36.105,61,35z"/></svg>